# xmcd
#
# Track frame offsets:
#	150
#	23669
#	39003
#	51411
#	70456
#	89012
#	101981
#	113949
#	128108
#	144925
#	160901
#
# Disc length: 2307 seconds
#
# Revision: 1
# Processed by: cddbd v1.5.2PL0 Copyright (c) Steve Scherf et al.
# Submitted via: audiograbber 1.80.04
#
DISCID=9709010b
DTITLE=New Riders Of The Purple Sage - Oh, What A Mighty Time
DYEAR=2007
DGENRE=Crossover
TTITLE0=Mighty Time
TTITLE1=I Heard You've Been Layin' My Old Lady
TTITLE2=Strangers On A Train
TTITLE3=Up Against The Wall, Redneck
TTITLE4=Take A Letter, Maria
TTITLE5=Little Old Lady
TTITLE6=On Top Of Old Smokey
TTITLE7=Over And Over
TTITLE8=La Bamba
TTITLE9=Going Round The Horn
TTITLE10=Farewell Angelina
EXTD=BGO Records BGOCD781  2007\nSony/BMG Records 1975
EXTT0=
EXTT1=
EXTT2=
EXTT3=
EXTT4=
EXTT5=
EXTT6=
EXTT7=
EXTT8=
EXTT9=
EXTT10=
PLAYORDER=
